<svg version="1.1" xmlns="http://www.w3.org/2000/svg" viewBox="0 0 759.9999999999995 488.63379206330023" width="759.9999999999995" height="488.63379206330023">
  <!-- svg-source:excalidraw -->
  
  <defs>
    <style class="style-fonts">
      @font-face {
        font-family: "Virgil";
        src: url("https://unpkg.com/@excalidraw/excalidraw@undefined/dist/excalidraw-assets/Virgil.woff2");
      }
      @font-face {
        font-family: "Cascadia";
        src: url("https://unpkg.com/@excalidraw/excalidraw@undefined/dist/excalidraw-assets/Cascadia.woff2");
      }
      @font-face {
        font-family: "Assistant";
        src: url("https://unpkg.com/@excalidraw/excalidraw@undefined/dist/excalidraw-assets/Assistant-Regular.woff2");
      }
    </style>
    
  </defs>
  <rect x="0" y="0" width="759.9999999999995" height="488.63379206330023" fill="#ffffff"></rect><g stroke-linecap="round"><g transform="translate(490.8529846135325 11.36526882243345) rotate(0 0 233.1918636216558)"><path d="M0 0 C-2.78 172.72, -1.22 347.86, 0 466.38" stroke="#000000" stroke-width="2.5" fill="none" stroke-dasharray="8 10"></path></g></g><mask></mask><g stroke-linecap="round"><g transform="translate(11.484814878205725 366.4532544185756) rotate(0 368.74474595025185 0)"><path d="M0 0 C191.06 3.35, 380.99 3.21, 737.49 0" stroke="#aaa" stroke-width="2.5" fill="none" stroke-dasharray="1.5 8"></path></g></g><mask></mask><g transform="translate(574.0398389124571 53.170412768828555) rotate(0 8.63800048828125 5.899915935204035)"><text x="0" y="0" font-family="Cascadia, Segoe UI Emoji" font-size="9.83319322534005px" fill="#000000" text-anchor="start" style="white-space: pre;" direction="ltr" dominant-baseline="text-before-edge">wed</text></g><g stroke-linecap="round" transform="translate(11.484814878205725 71.45745765837455) rotate(0 368.74474595025185 203.51399612628703)"><path d="M1.97 1.69 L736.65 1.27 L737.81 406.95 L1 406.24" stroke="none" stroke-width="0" fill="#ffffff"></path><path d="M0 0 C280.6 -1.09, 561.89 -1.89, 737.49 0 M0 0 C190.42 -3.11, 381.24 -2.88, 737.49 0 M737.49 0 C736.31 157.83, 736 316.88, 737.49 407.03 M737.49 0 C738.87 96.86, 738.24 194.36, 737.49 407.03 M737.49 407.03 C446.39 406.96, 155.61 406.17, 0 407.03 M737.49 407.03 C583.3 410, 429.32 409.69, 0 407.03 M0 407.03 C-0.95 258.11, -0.7 108.4, 0 0 M0 407.03 C2.5 289.52, 2.33 172.83, 0 0" stroke="#1e1e1e" stroke-width="2" fill="none"></path></g><g stroke-linecap="round" transform="translate(10 71.36277295771669) rotate(0 111.6789011800654 203.63550955279177)"><path d="M-0.84 1.27 L223.68 -0.07 L224.36 406.48 L0.91 406.8" stroke="none" stroke-width="0" fill="#ffec99"></path><path d="M0 0 C82.39 -1.92, 161.47 -2.3, 223.36 0 M0 0 C88.19 1.37, 176.8 1.16, 223.36 0 M223.36 0 C222.97 114.06, 222.63 230.02, 223.36 407.27 M223.36 0 C223.43 134.83, 224.44 269.91, 223.36 407.27 M223.36 407.27 C159.29 407.46, 95.11 407.24, 0 407.27 M223.36 407.27 C136.08 408.39, 48.72 408.98, 0 407.27 M0 407.27 C-0.07 299.51, -0.76 191.21, 0 0 M0 407.27 C-1.49 264.27, -1.21 121.76, 0 0" stroke="#1e1e1e" stroke-width="2" fill="none"></path></g><g stroke-linecap="round"><g transform="translate(232.73166244835693 71.45745765837455) rotate(0 0 202.80961027263854)"><path d="M0 0 C1.24 160.66, 2.75 321.43, 0 405.62 M0 0 C0.98 87.69, 0.37 175.93, 0 405.62" stroke="#000000" stroke-width="2" fill="none"></path></g></g><mask></mask><g stroke-linecap="round" transform="translate(530.7722042470004 76.0952966886843) rotate(0 106.79940419744321 13.657212812972347)"><path d="M6.83 0 C65.34 3.7, 127.89 1.37, 206.77 0 C211.02 2.23, 213.14 3.39, 213.6 6.83 C211.82 10.11, 213.32 16.49, 213.6 20.49 C211.99 24.5, 212.88 28.3, 206.77 27.31 C155.36 23.1, 106.77 25.62, 6.83 27.31 C2.24 26.13, 3.3 21.68, 0 20.49 C0.73 15.92, -0.98 15.34, 0 6.83 C-3.25 3.34, 0 1.99, 6.83 0" stroke="none" stroke-width="0" fill="#69db7c"></path><path d="M6.83 0 C68.06 -0.3, 123.88 0.93, 206.77 0 M6.83 0 C61.26 1, 115.22 0.72, 206.77 0 M206.77 0 C210.15 -1.23, 214.7 2.89, 213.6 6.83 M206.77 0 C211.89 -1.09, 211.58 2.73, 213.6 6.83 M213.6 6.83 C213.16 12.93, 213.14 16.95, 213.6 20.49 M213.6 6.83 C213.47 10.12, 213.77 12.45, 213.6 20.49 M213.6 20.49 C214.93 26.15, 210.6 27.87, 206.77 27.31 M213.6 20.49 C214.17 26.19, 210.82 27.03, 206.77 27.31 M206.77 27.31 C163.59 29.8, 123.35 30.83, 6.83 27.31 M206.77 27.31 C130.02 28.55, 53.45 28.19, 6.83 27.31 M6.83 27.31 C3.19 26.84, -1.61 25.74, 0 20.49 M6.83 27.31 C0.91 27.93, 1.2 24.34, 0 20.49 M0 20.49 C1.22 15.61, -0.21 11.03, 0 6.83 M0 20.49 C-0.45 16.67, -0.5 11.39, 0 6.83 M0 6.83 C0.9 0.67, 0.46 0.59, 6.83 0 M0 6.83 C2.22 1.18, 2.53 -0.88, 6.83 0" stroke="#000000" stroke-width="2" fill="none"></path></g><g stroke-linecap="round" transform="translate(239.3777785071684 297.6800148964951) rotate(0 123.23644898578607 13.657212812972332)"><path d="M6.83 0 C67.18 -2.22, 122.16 0.08, 239.64 0 C243.74 1.11, 248.44 2.82, 246.47 6.83 C245.98 9.69, 245.19 12.23, 246.47 20.49 C248.03 26.02, 242.08 28.5, 239.64 27.31 C181.18 25.81, 128.77 24.36, 6.83 27.31 C5.58 23.95, -0.8 26.75, 0 20.49 C-0.95 17.47, -2.3 10.32, 0 6.83 C-2.28 4.26, 3.42 1.95, 6.83 0" stroke="none" stroke-width="0" fill="#ff8787"></path><path d="M6.83 0 C69.37 1.15, 134.26 2.32, 239.64 0 M6.83 0 C64.05 -0.21, 122.19 -0.47, 239.64 0 M239.64 0 C245.3 0.62, 246.97 1.33, 246.47 6.83 M239.64 0 C242.18 0.45, 248.64 4.18, 246.47 6.83 M246.47 6.83 C245.84 10.06, 245.17 13.75, 246.47 20.49 M246.47 6.83 C246.72 12.09, 246.92 17.92, 246.47 20.49 M246.47 20.49 C245.75 25.59, 244.7 28.32, 239.64 27.31 M246.47 20.49 C245.97 24.75, 242.09 28.49, 239.64 27.31 M239.64 27.31 C151.71 29.89, 65.29 27.52, 6.83 27.31 M239.64 27.31 C155.45 26.91, 70.79 27.04, 6.83 27.31 M6.83 27.31 C0.67 28.01, -1.19 25.57, 0 20.49 M6.83 27.31 C3.47 26.61, 2.15 23.57, 0 20.49 M0 20.49 C-0.41 18.74, 0.29 13.59, 0 6.83 M0 20.49 C-0.47 16.12, 0.42 11.4, 0 6.83 M0 6.83 C-1.82 2.87, 4.2 -0.95, 6.83 0 M0 6.83 C0.26 1.4, 2.17 -0.1, 6.83 0" stroke="#000000" stroke-width="2" fill="none"></path></g><g stroke-linecap="round" transform="translate(470.42315904254747 408.0795909519072) rotate(0 27.372070527455776 15.156062610290547)"><path d="M7.58 0 C21.17 2.32, 34.9 1.21, 47.17 0 C54.19 0.54, 51.56 -0.13, 54.74 7.58 C53.49 10.75, 55.89 15.5, 54.74 22.73 C52.62 28.97, 49.99 27.1, 47.17 30.31 C37.44 29.23, 31.09 27.06, 7.58 30.31 C1.73 32.02, 3.57 29.03, 0 22.73 C-2.37 19.47, -1.63 16.09, 0 7.58 C1.14 4.47, -0.35 0.58, 7.58 0" stroke="none" stroke-width="0" fill="#4dabf7"></path><path d="M7.58 0 C17.32 1.72, 27.11 -0.45, 47.17 0 M7.58 0 C18.78 -0.49, 31.7 0.43, 47.17 0 M47.17 0 C52.71 -0.94, 52.99 2.92, 54.74 7.58 M47.17 0 C54.39 1.91, 54.37 1.59, 54.74 7.58 M54.74 7.58 C53.3 12, 56.08 18.15, 54.74 22.73 M54.74 7.58 C55.3 13.52, 54.53 18.82, 54.74 22.73 M54.74 22.73 C55.24 28.79, 51.78 30.07, 47.17 30.31 M54.74 22.73 C52.64 28.96, 54 28.59, 47.17 30.31 M47.17 30.31 C35.14 29.86, 20.99 31.02, 7.58 30.31 M47.17 30.31 C35.89 29.92, 22.9 30.5, 7.58 30.31 M7.58 30.31 C1.34 30.85, 1.04 27.18, 0 22.73 M7.58 30.31 C4.68 28.84, -1.78 29.69, 0 22.73 M0 22.73 C0.48 16.73, 0.22 11.35, 0 7.58 M0 22.73 C0.47 16.07, -0.56 10.85, 0 7.58 M0 7.58 C1.93 1.57, 2.75 -0.77, 7.58 0 M0 7.58 C-0.11 2.43, 1.34 -0.33, 7.58 0" stroke="#000000" stroke-width="2" fill="none"></path></g><g stroke-linecap="round" transform="translate(238.20454704798613 443.8634091560978) rotate(0 253.18435105076378 13.657212812972325)"><path d="M6.83 0 C147.74 -1.8, 289.85 -2.04, 499.54 0 C500.91 -2.66, 504.09 1.81, 506.37 6.83 C507.32 11.58, 504.81 15.8, 506.37 20.49 C504.14 21.83, 502.11 23.72, 499.54 27.31 C345.72 24.73, 188.84 26.82, 6.83 27.31 C5.84 28.56, -1.12 23.77, 0 20.49 C-1.33 16.39, 1 10.91, 0 6.83 C-2.87 2.86, 1.9 2.57, 6.83 0" stroke="none" stroke-width="0" fill="#4dabf7"></path><path d="M6.83 0 C164.56 -1.98, 323.12 -2.52, 499.54 0 M6.83 0 C139.92 1.37, 272.65 1.05, 499.54 0 M499.54 0 C502.34 0.39, 508.25 3.93, 506.37 6.83 M499.54 0 C503.72 -0.94, 507.57 1.31, 506.37 6.83 M506.37 6.83 C507.5 10.18, 507.12 14.24, 506.37 20.49 M506.37 6.83 C506.21 10.93, 506.63 15, 506.37 20.49 M506.37 20.49 C505.93 24.79, 502.26 28.34, 499.54 27.31 M506.37 20.49 C508.15 23.32, 505.17 27.25, 499.54 27.31 M499.54 27.31 C303.83 26.59, 107.03 26.87, 6.83 27.31 M499.54 27.31 C370.89 26.98, 242.66 26.94, 6.83 27.31 M6.83 27.31 C3.32 26.7, 1.87 23.76, 0 20.49 M6.83 27.31 C0.5 29.22, 0.84 24.53, 0 20.49 M0 20.49 C0.13 14.02, 1.32 8.54, 0 6.83 M0 20.49 C-0.68 16.78, 0.6 12.35, 0 6.83 M0 6.83 C0.22 1.51, 2.18 -0.08, 6.83 0 M0 6.83 C-1.19 1.95, 3.45 1.93, 6.83 0" stroke="#000000" stroke-width="2" fill="none"></path></g><g stroke-linecap="round" transform="translate(383.36094239419435 259.18324294126245) rotate(0 16.139014975800592 13.657212812972318)"><path d="M6.83 0 C15.4 0.4, 17.34 -2.58, 25.45 0 C27.72 -0.46, 32.24 0.67, 32.28 6.83 C30.94 11.53, 30.86 12.42, 32.28 20.49 C30.29 21.44, 30.54 27.28, 25.45 27.31 C19.73 28.6, 18.82 28.16, 6.83 27.31 C1.15 26.05, 3.57 21.79, 0 20.49 C0.94 17.31, -1.81 11.88, 0 6.83 C-0.38 4.85, -0.93 0.62, 6.83 0" stroke="none" stroke-width="0" fill="#69db7c"></path><path d="M6.83 0 C14.05 -1.53, 20.79 -1.05, 25.45 0 M6.83 0 C11.5 -0.5, 14.9 0.12, 25.45 0 M25.45 0 C31.89 1.66, 31.95 1.46, 32.28 6.83 M25.45 0 C31.2 -0.97, 31.19 0.18, 32.28 6.83 M32.28 6.83 C33.28 10.61, 32.22 14.29, 32.28 20.49 M32.28 6.83 C32.4 12.02, 32.08 16.45, 32.28 20.49 M32.28 20.49 C30.45 26.06, 31.55 25.82, 25.45 27.31 M32.28 20.49 C33.35 24.98, 32.26 29.26, 25.45 27.31 M25.45 27.31 C20.58 28.28, 15.11 28.19, 6.83 27.31 M25.45 27.31 C19.75 27.63, 15.65 27.1, 6.83 27.31 M6.83 27.31 C4.15 26.03, -1.55 26.69, 0 20.49 M6.83 27.31 C3.12 26.81, 2.18 25.71, 0 20.49 M0 20.49 C1.34 16.04, -0.21 14.54, 0 6.83 M0 20.49 C0.78 17.16, 0.2 14.22, 0 6.83 M0 6.83 C-0.1 2.19, 1.24 -0.28, 6.83 0 M0 6.83 C1.17 4.21, 1.96 -0.19, 6.83 0" stroke="#000000" stroke-width="2" fill="none"></path></g><g stroke-linecap="round" transform="translate(420.2143220565745 334.38338272991416) rotate(0 16.139014975800592 13.657212812972332)"><path d="M6.83 0 C10.02 -2.53, 17.03 -0.48, 25.45 0 C29.96 -1.61, 31.74 3.83, 32.28 6.83 C30.61 9.11, 30.78 13.32, 32.28 20.49 C32.82 25, 28.82 30.62, 25.45 27.31 C24.92 28.63, 16.71 26.3, 6.83 27.31 C5.85 24.06, 1.07 22.76, 0 20.49 C-2.04 16.03, -0.34 12.54, 0 6.83 C-3.21 2.9, 0.87 -1.9, 6.83 0" stroke="none" stroke-width="0" fill="#ff8787"></path><path d="M6.83 0 C11.51 -0.93, 16.17 1.18, 25.45 0 M6.83 0 C12.17 0.27, 20.03 0.86, 25.45 0 M25.45 0 C29.67 -0.81, 33.32 1.43, 32.28 6.83 M25.45 0 C28.91 -2.09, 30.89 4.4, 32.28 6.83 M32.28 6.83 C32.18 11.74, 33.12 14.34, 32.28 20.49 M32.28 6.83 C32.16 11.22, 31.69 16.13, 32.28 20.49 M32.28 20.49 C33.83 23.54, 30.93 27.26, 25.45 27.31 M32.28 20.49 C34.54 26.99, 29.03 28.77, 25.45 27.31 M25.45 27.31 C18.83 28.26, 13.23 25.91, 6.83 27.31 M25.45 27.31 C19.7 27.08, 13.85 26.77, 6.83 27.31 M6.83 27.31 C0.73 28.97, 0.73 24.6, 0 20.49 M6.83 27.31 C4.46 27.99, -1.37 25.33, 0 20.49 M0 20.49 C-0.33 18.08, -1.23 13.19, 0 6.83 M0 20.49 C-0.05 15.72, -0.16 11.45, 0 6.83 M0 6.83 C-1.04 1.99, 3.3 1.68, 6.83 0 M0 6.83 C-0.31 2.08, 3.7 -0.29, 6.83 0" stroke="#000000" stroke-width="2" fill="none"></path></g><g stroke-linecap="round" transform="translate(383.0961396208045 148.23709622254228) rotate(0 56.017852654216995 12.92765100887462)"><path d="M6.46 0 C35.41 0.86, 68.89 -0.29, 105.57 0 C109.34 1.56, 113.02 0.03, 112.04 6.46 C110.61 8.45, 112.24 15.05, 112.04 19.39 C110.85 27, 106.52 25.05, 105.57 25.86 C70 25.21, 40.25 23.22, 6.46 25.86 C3.22 23.58, 1.99 24.84, 0 19.39 C-0.06 16.48, -1.89 10.64, 0 6.46 C-1.41 0.25, 3.73 -0.75, 6.46 0" stroke="none" stroke-width="0" fill="#69db7c"></path><path d="M6.46 0 C26.66 1.68, 49.93 1.07, 105.57 0 M6.46 0 C32.46 0.64, 56.4 -0.6, 105.57 0 M105.57 0 C110.93 -0.84, 111.09 0.34, 112.04 6.46 M105.57 0 C108.5 2.12, 111.87 3.63, 112.04 6.46 M112.04 6.46 C112.73 10.36, 112.38 15.51, 112.04 19.39 M112.04 6.46 C111.42 11.32, 112.51 15.03, 112.04 19.39 M112.04 19.39 C112.97 23.65, 111.85 27.55, 105.57 25.86 M112.04 19.39 C111.07 25.16, 110.25 25.77, 105.57 25.86 M105.57 25.86 C70.41 24.7, 36.89 25.12, 6.46 25.86 M105.57 25.86 C74.12 24.91, 40.03 26.38, 6.46 25.86 M6.46 25.86 C2.89 25.41, 1.9 24.29, 0 19.39 M6.46 25.86 C0.78 26.14, -1.8 25.99, 0 19.39 M0 19.39 C-1.02 15.44, 0.4 15.08, 0 6.46 M0 19.39 C-0.05 16.1, -0.35 12.77, 0 6.46 M0 6.46 C1.02 3.83, 1.88 -0.17, 6.46 0 M0 6.46 C1.42 1.86, 2.87 1.26, 6.46 0" stroke="#000000" stroke-width="2" fill="none"></path></g><g stroke-linecap="round" transform="translate(421.5323591361639 187.03860061301083) rotate(0 50.74331814156858 12.92765100887462)"><path d="M6.46 0 C26.45 -1.4, 45.97 1.76, 95.02 0 C100.32 -2.12, 102.67 -0.08, 101.49 6.46 C101.71 9.17, 100.59 14.05, 101.49 19.39 C98.12 22.9, 101.04 29.42, 95.02 25.86 C68.96 22.05, 36.83 23.02, 6.46 25.86 C4.14 27, 1.95 20.83, 0 19.39 C-2.05 15.7, -0.89 9.99, 0 6.46 C1.57 1.4, 2.62 2.98, 6.46 0" stroke="none" stroke-width="0" fill="#69db7c"></path><path d="M6.46 0 C28.47 0.01, 48.31 -2.24, 95.02 0 M6.46 0 C34.6 -1.14, 63.59 -1.16, 95.02 0 M95.02 0 C98.39 -1.82, 100.28 4, 101.49 6.46 M95.02 0 C99.17 1.47, 102.35 1.85, 101.49 6.46 M101.49 6.46 C101.92 11.52, 102.21 15.66, 101.49 19.39 M101.49 6.46 C101.87 9.7, 101.67 13.88, 101.49 19.39 M101.49 19.39 C103.45 25.39, 98.49 27.12, 95.02 25.86 M101.49 19.39 C101.86 23.61, 100.48 24.95, 95.02 25.86 M95.02 25.86 C65.11 23.95, 34.34 26.18, 6.46 25.86 M95.02 25.86 C70.38 26.12, 47.66 25.07, 6.46 25.86 M6.46 25.86 C4.05 26.44, -1.19 23.95, 0 19.39 M6.46 25.86 C0.35 28.14, -1.96 23.38, 0 19.39 M0 19.39 C0.49 16.17, -0.51 10.61, 0 6.46 M0 19.39 C-0.33 15.92, 0.34 13.17, 0 6.46 M0 6.46 C-0.27 1.99, 3.39 -0.26, 6.46 0 M0 6.46 C0.71 3.41, 2.5 -2.04, 6.46 0" stroke="#000000" stroke-width="2" fill="none"></path></g><g stroke-linecap="round" transform="translate(422.89755183074703 224.59076751302376) rotate(0 32.128894053689464 12.92765100887462)"><path d="M6.46 0 C20.66 1.97, 36.93 -1.71, 57.79 0 C63.29 -2.23, 61.05 0.17, 64.26 6.46 C63.53 11.19, 62.12 11.12, 64.26 19.39 C65.97 27.27, 63.35 24.73, 57.79 25.86 C45.27 22.75, 32.59 26.16, 6.46 25.86 C4.1 22.98, 0.58 23.32, 0 19.39 C-0.7 13.36, 1.22 9.3, 0 6.46 C0.46 5.14, 5.5 0.32, 6.46 0" stroke="none" stroke-width="0" fill="#69db7c"></path><path d="M6.46 0 C23.74 -1.88, 43.3 1.76, 57.79 0 M6.46 0 C26.64 -0.21, 45.3 -0.7, 57.79 0 M57.79 0 C60.9 1.84, 64.12 3.44, 64.26 6.46 M57.79 0 C62.96 -0.31, 65.79 3.43, 64.26 6.46 M64.26 6.46 C64.94 9.6, 64.13 12.11, 64.26 19.39 M64.26 6.46 C64.66 10.98, 64.99 16.09, 64.26 19.39 M64.26 19.39 C63.42 24.97, 62.43 25.78, 57.79 25.86 M64.26 19.39 C65.41 22.79, 63.15 25.31, 57.79 25.86 M57.79 25.86 C47.06 26.59, 34.65 27.42, 6.46 25.86 M57.79 25.86 C46.05 26.06, 34.51 26.57, 6.46 25.86 M6.46 25.86 C0.96 26.11, -1.57 25.69, 0 19.39 M6.46 25.86 C0.2 25.53, 1.04 21.86, 0 19.39 M0 19.39 C-0.65 16.83, -0.53 13.92, 0 6.46 M0 19.39 C0.4 16.11, -0.02 11.69, 0 6.46 M0 6.46 C1.24 1.9, 2.77 1.09, 6.46 0 M0 6.46 C0.35 0.12, 0.45 -1.46, 6.46 0" stroke="#000000" stroke-width="2" fill="none"></path></g><g stroke-linecap="round" transform="translate(496.5107697864396 113.69469683363519) rotate(0 123.85766841538373 13.657212812972347)"><path d="M6.83 0 C67.42 -3.33, 127.36 -3.42, 240.89 0 C242.23 -1.99, 244.12 2.81, 247.72 6.83 C245.34 10.37, 248.8 17.43, 247.72 20.49 C248.96 23.91, 244.17 30.88, 240.89 27.31 C193.47 26.03, 144.35 22.65, 6.83 27.31 C2.86 26.94, 2.57 21.83, 0 20.49 C1.17 15.64, 0.41 13.86, 0 6.83 C3.34 2.59, 2.33 -3.04, 6.83 0" stroke="none" stroke-width="0" fill="#69db7c"></path><path d="M6.83 0 C83.17 3.32, 160.25 1.45, 240.89 0 M6.83 0 C67.11 0.06, 127.68 1.61, 240.89 0 M240.89 0 C245.3 1.28, 248.46 2.01, 247.72 6.83 M240.89 0 C246.97 1.27, 246.89 2.91, 247.72 6.83 M247.72 6.83 C247.62 10.02, 248.48 16.76, 247.72 20.49 M247.72 6.83 C248.45 10.48, 247.49 13.41, 247.72 20.49 M247.72 20.49 C248.04 24.96, 246.44 26.52, 240.89 27.31 M247.72 20.49 C248.77 24.49, 243.59 28.12, 240.89 27.31 M240.89 27.31 C184.07 29.92, 127.21 27.04, 6.83 27.31 M240.89 27.31 C152.09 27.13, 61.2 26.99, 6.83 27.31 M6.83 27.31 C0.71 29.3, -1.7 24.76, 0 20.49 M6.83 27.31 C3.32 25.47, -2.09 25.72, 0 20.49 M0 20.49 C-0.46 15.01, 0.01 8.95, 0 6.83 M0 20.49 C-0.16 16.53, 0.35 12.59, 0 6.83 M0 6.83 C0.62 3.37, 2.58 -1.77, 6.83 0 M0 6.83 C-1.7 0.82, 1.98 -0.03, 6.83 0" stroke="#000000" stroke-width="2" fill="none"></path></g><g stroke-linecap="round"><g transform="translate(269.6061370433804 71.45745765837455) rotate(0 -0.20648185779839423 202.8943355269392)"><path d="M1.13 1 C1.2 68.51, -0.46 337.92, -0.61 405.3" stroke="#aaa" stroke-width="2.5" fill="none" stroke-dasharray="1.5 8"></path></g></g><mask></mask><g stroke-linecap="round"><g transform="translate(306.480611638407 71.45745765837455) rotate(0 0 202.80961027263854)"><path d="M-0.2 -0.49 C-0.28 66.86, 0.69 337.61, 0.63 405.11" stroke="#aaa" stroke-width="2.5" fill="none" stroke-dasharray="1.5 8"></path></g></g><mask></mask><g stroke-linecap="round"><g transform="translate(343.3550862334323 71.45745765837455) rotate(0 0 202.80961027263854)"><path d="M0.63 -0.51 C0.57 67, -0.34 336.66, -0.57 404.53" stroke="#aaa" stroke-width="2.5" fill="none" stroke-dasharray="1.5 8"></path></g></g><mask></mask><g stroke-linecap="round"><g transform="translate(380.2295608284576 71.45745765837455) rotate(0 0 202.80961027263854)"><path d="M-0.57 -1.09 C-0.79 66.78, -0.8 338.81, -0.72 406.73" stroke="#aaa" stroke-width="2.5" fill="none" stroke-dasharray="1.5 8"></path></g></g><mask></mask><g stroke-linecap="round"><g transform="translate(416.9782844057222 71.45745765837455) rotate(0 0 202.80961027263854)"><path d="M-0.72 1.11 C-0.64 69.02, -0.28 339, -0.09 406.39" stroke="#aaa" stroke-width="2.5" fill="none" stroke-dasharray="1.5 8"></path></g></g><mask></mask><g stroke-linecap="round"><g transform="translate(453.9785100185077 71.45745765837455) rotate(0 0 202.80961027263854)"><path d="M-0.09 0.77 C0.11 68.16, 0.3 337.87, 0.45 405.46" stroke="#aaa" stroke-width="2.5" fill="none" stroke-dasharray="1.5 8"></path></g></g><mask></mask><g stroke-linecap="round"><g transform="translate(527.7274592085578 71.45745765837455) rotate(0 0 202.80961027263854)"><path d="M0.45 -0.16 C0.6 67.43, 0.95 338.6, 0.8 406.28" stroke="#aaa" stroke-width="2.5" fill="none" stroke-dasharray="1.5 8"></path></g></g><mask></mask><g stroke-linecap="round"><g transform="translate(564.6019338035817 71.45745765837455) rotate(0 0 202.80961027263854)"><path d="M0.8 0.66 C0.65 68.35, -0.35 338.36, -0.43 405.95" stroke="#aaa" stroke-width="2.5" fill="none" stroke-dasharray="1.5 8"></path></g></g><mask></mask><g stroke-linecap="round"><g transform="translate(601.4764083986088 71.45745765837455) rotate(0 0 202.80961027263854)"><path d="M-0.43 0.33 C-0.52 67.92, 0.27 338.7, 0.3 406.22" stroke="#aaa" stroke-width="2.5" fill="none" stroke-dasharray="1.5 8"></path></g></g><mask></mask><g stroke-linecap="round"><g transform="translate(638.3508829936341 71.45745765837455) rotate(0 0 202.80961027263854)"><path d="M0.3 0.6 C0.33 68.12, -0.03 337.87, -0.26 405.47" stroke="#aaa" stroke-width="2.5" fill="none" stroke-dasharray="1.5 8"></path></g></g><mask></mask><g stroke-linecap="round"><g transform="translate(675.2253575886589 71.45745765837455) rotate(0 0 202.80961027263854)"><path d="M-0.26 -0.15 C-0.49 67.46, -1.3 338.75, -1.1 406.23" stroke="#aaa" stroke-width="2.5" fill="none" stroke-dasharray="1.5 8"></path></g></g><mask></mask><g stroke-linecap="round"><g transform="translate(712.0998321836842 71.45745765837455) rotate(0 0 202.80961027263854)"><path d="M-1.1 0.61 C-0.9 68.09, 0.65 337.23, 0.93 404.72" stroke="#aaa" stroke-width="2.5" fill="none" stroke-dasharray="1.5 8"></path></g></g><mask></mask><g stroke-linecap="round"><g transform="translate(11.484814878205725 108.52545003283433) rotate(0 368.74474595025185 0)"><path d="M0 0 C153.15 -1.91, 307.47 -1.5, 737.49 0" stroke="#aaa" stroke-width="2.5" fill="none" stroke-dasharray="1.5 8"></path></g></g><mask></mask><g stroke-linecap="round"><g transform="translate(11.484814878205725 145.20640684842652) rotate(0 368.74474595025185 0)"><path d="M0 0 C278.39 -0.59, 557.5 -1.71, 737.49 0" stroke="#aaa" stroke-width="2.5" fill="none" stroke-dasharray="1.5 8"></path></g></g><mask></mask><g stroke-linecap="round"><g transform="translate(11.484814878205725 182.08088144345163) rotate(0 368.74474595025185 0)"><path d="M0 0 C256.32 -3.24, 511.79 -2.77, 737.49 0" stroke="#aaa" stroke-width="2.5" fill="none" stroke-dasharray="1.5 8"></path></g></g><mask></mask><g stroke-linecap="round"><g transform="translate(11.484814878205725 218.95535603847486) rotate(0 368.74474595025185 0)"><path d="M0 0 C294.24 1.37, 587.43 1.64, 737.49 0" stroke="#aaa" stroke-width="2.5" fill="none" stroke-dasharray="1.5 8"></path></g></g><mask></mask><g stroke-linecap="round"><g transform="translate(11.484814878205725 257.2906283141583) rotate(0 368.74474595025185 -0.7303988403292863)"><path d="M0 0 C190.21 -0.45, 380.16 -0.86, 737.49 -1.46" stroke="#aaa" stroke-width="2.5" fill="none" stroke-dasharray="1.5 8"></path></g></g><mask></mask><g stroke-linecap="round"><g transform="translate(11.484814878205725 329.5787798235515) rotate(0 368.74474595025185 0)"><path d="M0 0 C232.81 -1.11, 466.07 -2.12, 737.49 0" stroke="#aaa" stroke-width="2.5" fill="none" stroke-dasharray="1.5 8"></path></g></g><mask></mask><g stroke-linecap="round"><g transform="translate(11.484814878205725 440.20220360862487) rotate(0 368.74474595025185 0)"><path d="M0 0 C257.95 -1.99, 516.55 -1.82, 737.49 0" stroke="#aaa" stroke-width="2.5" fill="none" stroke-dasharray="1.5 8"></path></g></g><mask></mask><g stroke-linecap="round"><g transform="translate(11.484814878205725 292.704305228525) rotate(0 368.74474595025185 0)"><path d="M0 0 C255.18 1.9, 510.02 2.79, 737.49 0 M0 0 C198.43 2.22, 397.63 1.8, 737.49 0" stroke="#1e1e1e" stroke-width="2" fill="none"></path></g></g><mask></mask><g stroke-linecap="round"><g transform="translate(11.484814878205725 403.3277290136007) rotate(0 368.74474595025185 0)"><path d="M0 0 C162.08 2.17, 323.5 2.5, 737.49 0 M0 0 C174.19 -2.53, 348.46 -2.32, 737.49 0" stroke="#1e1e1e" stroke-width="2" fill="none"></path></g></g><mask></mask><g stroke-linecap="round" transform="translate(233.35407658482154 10) rotate(0 258.322961707589 30.61930783671687)"><path d="M-0.66 1.84 L514.78 -0.44 L517.6 63.22 L0.69 60.61" stroke="none" stroke-width="0" fill="#ffd8a8"></path><path d="M0 0 C124.03 -0.33, 248.04 -1.7, 516.65 0 M0 0 C198.14 0.57, 395.28 0.51, 516.65 0 M516.65 0 C516.97 14.48, 515.65 25.33, 516.65 61.24 M516.65 0 C517.35 19.8, 517.19 40.33, 516.65 61.24 M516.65 61.24 C389.06 62.18, 260.07 62.79, 0 61.24 M516.65 61.24 C368.33 62.01, 219.6 62.12, 0 61.24 M0 61.24 C-0.29 44.52, 0.55 24.89, 0 0 M0 61.24 C-0.17 39.85, 0.53 20.44, 0 0" stroke="#1e1e1e" stroke-width="2" fill="none"></path></g><g transform="translate(125.7598639124061 157.4978983801003) rotate(0 44.00348663330084 7.682182207296904)"><text x="0" y="0" font-family="Virgil, Segoe UI Emoji" font-size="12.291491531675067px" fill="#000000" text-anchor="start" style="white-space: pre;" direction="ltr" dominant-baseline="text-before-edge">Library Sorting</text></g><g transform="translate(111.39112606635274 194.37237297512542) rotate(0 51.181831359863224 7.682182207296904)"><text x="0" y="0" font-family="Virgil, Segoe UI Emoji" font-size="12.29149153167506px" fill="#000000" text-anchor="start" style="white-space: pre;" direction="ltr" dominant-baseline="text-before-edge">Library Promoted</text></g><g transform="translate(49.0732958848173 268.12132216517557) rotate(0 82.31461334228516 7.682182207296918)"><text x="0" y="0" font-family="Virgil, Segoe UI Emoji" font-size="12.291491531675064px" fill="#000000" text-anchor="start" style="white-space: pre;" direction="ltr" dominant-baseline="text-before-edge">Library Downloads Tracking</text></g><g transform="translate(52.072422819399776 304.26234607814655) rotate(0 80.81630706787115 7.682182207296918)"><text x="0" y="0" font-family="Virgil, Segoe UI Emoji" font-size="12.291491531675065px" fill="#000000" text-anchor="start" style="white-space: pre;" direction="ltr" dominant-baseline="text-before-edge">Package component rewrite</text></g><g transform="translate(79.95114699866247 341.13682067317023) rotate(0 66.94473266601557 7.682182207296918)"><text x="133.88946533203125" y="0" font-family="Virgil, Segoe UI Emoji" font-size="12.291491531675067px" fill="#000000" text-anchor="end" style="white-space: pre;" direction="ltr" dominant-baseline="text-before-edge">Render helpers rewrite</text></g><g transform="translate(36.74496888962915 378.01129526819625) rotate(0 88.47363281249994 7.682182207296918)"><text x="0" y="0" font-family="Virgil, Segoe UI Emoji" font-size="12.29149153167506px" fill="#000000" text-anchor="start" style="white-space: pre;" direction="ltr" dominant-baseline="text-before-edge">Render decoupling from editor</text></g><g transform="translate(122.17075063579739 231.24684757015046) rotate(0 45.79653167724615 7.682182207296904)"><text x="0" y="0" font-family="Virgil, Segoe UI Emoji" font-size="12.291491531675067px" fill="#000000" text-anchor="start" style="white-space: pre;" direction="ltr" dominant-baseline="text-before-edge">Library Popular</text></g><g transform="translate(129.85292346543122 83.74894919005015) rotate(0 41.95866394042963 7.682182207296904)"><text x="0" y="0" font-family="Virgil, Segoe UI Emoji" font-size="12.291491531675064px" fill="#000000" text-anchor="start" style="white-space: pre;" direction="ltr" dominant-baseline="text-before-edge">Library Editor</text></g><g transform="translate(138.80111842239967 120.62342378507526) rotate(0 37.488319396972656 7.682182207296904)"><text x="0" y="0" font-family="Virgil, Segoe UI Emoji" font-size="12.291491531675064px" fill="#000000" text-anchor="start" style="white-space: pre;" direction="ltr" dominant-baseline="text-before-edge">Library Auth</text></g><g transform="translate(75.58604274353536 415.6192205452754) rotate(0 69.06936645507818 7.682182207296911)"><text x="0" y="0" font-family="Virgil, Segoe UI Emoji" font-size="12.291491531675057px" fill="#000000" text-anchor="start" style="white-space: pre;" direction="ltr" dominant-baseline="text-before-edge">Yearly review blog post</text></g><g transform="translate(38.93285288184177 452.4936951403005) rotate(0 87.38061523437506 7.682182207296915)"><text x="0" y="0" font-family="Virgil, Segoe UI Emoji" font-size="12.291491531675065px" fill="#000000" text-anchor="start" style="white-space: pre;" direction="ltr" dominant-baseline="text-before-edge">GH Projects (issues) release</text></g><g transform="translate(331.0635947017586 22.29149153167384) rotate(0 28.7933349609375 11.79983187040807)"><text x="0" y="0" font-family="Cascadia, Segoe UI Emoji" font-size="19.666386450680093px" fill="#000000" text-anchor="start" style="white-space: pre;" direction="ltr" dominant-baseline="text-before-edge">10–16</text></g><g transform="translate(282.7571606022989 53.170412768828555) rotate(0 8.63800048828125 5.899915935204035)"><text x="0" y="0" font-family="Cascadia, Segoe UI Emoji" font-size="9.83319322534005px" fill="#000000" text-anchor="start" style="white-space: pre;" direction="ltr" dominant-baseline="text-before-edge">tue</text></g><g transform="translate(316.81407894214317 53.170412768828555) rotate(0 8.63800048828125 5.899915935204035)"><text x="0" y="0" font-family="Cascadia, Segoe UI Emoji" font-size="9.83319322534005px" fill="#000000" text-anchor="start" style="white-space: pre;" direction="ltr" dominant-baseline="text-before-edge">wed</text></g><g transform="translate(354.769544148131 53.170412768828555) rotate(0 8.63800048828125 5.899915935204035)"><text x="0" y="0" font-family="Cascadia, Segoe UI Emoji" font-size="9.83319322534005px" fill="#000000" text-anchor="start" style="white-space: pre;" direction="ltr" dominant-baseline="text-before-edge">thu</text></g><g transform="translate(395.11645110910194 53.170412768828555) rotate(0 8.63800048828125 5.899915935204035)"><text x="0" y="0" font-family="Cascadia, Segoe UI Emoji" font-size="9.83319322534005px" fill="#000000" text-anchor="start" style="white-space: pre;" direction="ltr" dominant-baseline="text-before-edge">fri</text></g><g transform="translate(653.6664552448501 53.170412768828555) rotate(0 8.63800048828125 5.899915935204035)"><text x="0" y="0" font-family="Cascadia, Segoe UI Emoji" font-size="9.83319322534005px" fill="#000000" text-anchor="start" style="white-space: pre;" direction="ltr" dominant-baseline="text-before-edge">fri</text></g><g transform="translate(722.8510411814445 53.19839819593369) rotate(0 8.63800048828125 5.899915935204035)"><text x="0" y="0" font-family="Cascadia, Segoe UI Emoji" font-size="9.83319322534005px" fill="#000000" text-anchor="start" style="white-space: pre;" direction="ltr" dominant-baseline="text-before-edge">sun</text></g><g transform="translate(590.7651184712486 22.464052013056175) rotate(0 28.7933349609375 11.79983187040807)"><text x="0" y="0" font-family="Cascadia, Segoe UI Emoji" font-size="19.666386450680093px" fill="#000000" text-anchor="start" style="white-space: pre;" direction="ltr" dominant-baseline="text-before-edge">17–23</text></g><g transform="translate(245.09690316915658 53.170412768828555) rotate(0 8.63800048828125 5.899915935204035)"><text x="0" y="0" font-family="Cascadia, Segoe UI Emoji" font-size="9.83319322534005px" fill="#000000" text-anchor="start" style="white-space: pre;" direction="ltr" dominant-baseline="text-before-edge">mon</text></g><g transform="translate(429.39552695515795 53.170412768828555) rotate(0 8.63800048828125 5.899915935204035)"><text x="0" y="0" font-family="Cascadia, Segoe UI Emoji" font-size="9.83319322534005px" fill="#000000" text-anchor="start" style="white-space: pre;" direction="ltr" dominant-baseline="text-before-edge">sat</text></g><g transform="translate(464.3726409417577 53.197870438136476) rotate(0 8.63800048828125 5.899915935204035)"><text x="0" y="0" font-family="Cascadia, Segoe UI Emoji" font-size="9.83319322534005px" fill="#000000" text-anchor="start" style="white-space: pre;" direction="ltr" dominant-baseline="text-before-edge">sun</text></g><g transform="translate(499.8933311982896 53.170412768828555) rotate(0 8.63800048828125 5.899915935204035)"><text x="0" y="0" font-family="Cascadia, Segoe UI Emoji" font-size="9.83319322534005px" fill="#000000" text-anchor="start" style="white-space: pre;" direction="ltr" dominant-baseline="text-before-edge">mon</text></g><g transform="translate(538.7104251989936 53.170412768828555) rotate(0 8.63800048828125 5.899915935204035)"><text x="0" y="0" font-family="Cascadia, Segoe UI Emoji" font-size="9.83319322534005px" fill="#000000" text-anchor="start" style="white-space: pre;" direction="ltr" dominant-baseline="text-before-edge">tue</text></g><g transform="translate(612.1998601888513 53.170412768828555) rotate(0 8.63800048828125 5.899915935204035)"><text x="0" y="0" font-family="Cascadia, Segoe UI Emoji" font-size="9.83319322534005px" fill="#000000" text-anchor="start" style="white-space: pre;" direction="ltr" dominant-baseline="text-before-edge">thu</text></g><g transform="translate(686.7500598285901 53.170412768828555) rotate(0 8.63800048828125 5.899915935204035)"><text x="0" y="0" font-family="Cascadia, Segoe UI Emoji" font-size="9.83319322534005px" fill="#000000" text-anchor="start" style="white-space: pre;" direction="ltr" dominant-baseline="text-before-edge">sat</text></g><g stroke-linecap="round" transform="translate(386.7254336659312 371.7071040031531) rotate(0 123.23644898578607 13.657212812972318)"><path d="M6.83 0 C61.8 0.77, 116.26 1.31, 239.64 0 C243.84 -2.6, 246.81 4.95, 246.47 6.83 C246.28 10.51, 245.61 13.96, 246.47 20.49 C245.44 25.16, 242.65 28.42, 239.64 27.31 C186.27 23.94, 124.54 21.72, 6.83 27.31 C3.41 30.73, -0.05 23.74, 0 20.49 C-0.13 16.86, 1.9 14.9, 0 6.83 C1.53 2.68, 0.41 -3.3, 6.83 0" stroke="none" stroke-width="0" fill="#ff8787"></path><path d="M6.83 0 C81.71 -0.93, 153.11 1.45, 239.64 0 M6.83 0 C99.44 1.45, 191.88 0.87, 239.64 0 M239.64 0 C242.93 1.1, 247.11 3.36, 246.47 6.83 M239.64 0 C242.36 0.37, 246.23 3.92, 246.47 6.83 M246.47 6.83 C245.78 10.3, 246.21 12.76, 246.47 20.49 M246.47 6.83 C246.61 11.48, 246.4 17.96, 246.47 20.49 M246.47 20.49 C247.91 25.42, 244.82 27.88, 239.64 27.31 M246.47 20.49 C245.51 25.08, 243.36 28.74, 239.64 27.31 M239.64 27.31 C151.27 30.27, 61.59 27.67, 6.83 27.31 M239.64 27.31 C187.09 26.7, 132.62 26.27, 6.83 27.31 M6.83 27.31 C0.48 26.05, -0.86 24.01, 0 20.49 M6.83 27.31 C3.21 28.88, -1.31 25.38, 0 20.49 M0 20.49 C0.3 17.41, 1.05 13.47, 0 6.83 M0 20.49 C0.38 15.35, -0.07 9.35, 0 6.83 M0 6.83 C-0.26 0.89, 1.71 -0.24, 6.83 0 M0 6.83 C1.7 1.7, 2.12 -2.03, 6.83 0" stroke="#000000" stroke-width="2" fill="none"></path></g></svg>
